# xmcd CD database file
#
# Track frame offsets:
#	150
#	26095
#	52530
#	83826
#	104373
#	126913
#	153071
#	183004
#	208085
#	231154
#	249936
#	280264
#	303437
#	324568
#
# Disc length: 4603 seconds
#
# Revision: 0
# Processed by: cddbd v1.4PL0 Copyright (c) Steve Scherf et al.
# Submitted via: CDex 1.50Beta7
#
DISCID=ad11f90e
DTITLE=Various Artist - MTV Jazzmasters 2
DYEAR=2001
DGENRE=Jazz
TTITLE0=Martin Taylor/Chaff and Grain
TTITLE1=Gerald Albright/Winelight
TTITLE2=Fourplay/Blues Force
TTITLE3=Kim Waters/Fortunate
TTITLE4=Russ Freeman/East River Drive
TTITLE5=Chuck Loeb/Rock With You
TTITLE6=Marcus Miller/Red Baron
TTITLE7=Dave Koz/In The Name Of Love
TTITLE8=Nelson Rangell/Reasons
TTITLE9=Mark Whitefield/Summer Chill
TTITLE10=Spyro Gyra/The River Between
TTITLE11=Bob Baldwin/Walk On By
TTITLE12=Paul Taylor - Peter White/Come Morning
TTITLE13=Special Efx/Stay a White
EXTD=YEAR: 2001
EXTT0=
EXTT1=
EXTT2=
EXTT3=
EXTT4=
EXTT5=
EXTT6=
EXTT7=
EXTT8=
EXTT9=
EXTT10=
EXTT11=
EXTT12=
EXTT13=
PLAYORDER=
